# xmcd CD database file
#
# Track frame offsets:
#	150
#	15658
#	25437
#	41091
#	63317
#	73099
#	82224
#	88929
#	102956
#	121278
#	124753
#	139908
#	154260
#	183091
#	201864
#
# Disc length: 3238 seconds
#
# Revision: 1
# Processed by: cddbd v1.5.2PL0 Copyright (c) Steve Scherf et al.
# Submitted via: CDex 1.51
#
DISCID=d80ca40f
DTITLE=Yann Fanch Kemener Aldo Ripoche - An Dorn
DYEAR=2005
DGENRE=Ethnic
TTITLE0=Fisel - Ar velein
TTITLE1=An dorn
TTITLE2=An dro - Ker pondi
TTITLE3=Kimiad ar Zoudard yaouank
TTITLE4=Gres mat Pier
TTITLE5=Plinn - Ton kentan
TTITLE6=Plinn - Ton bal
TTITLE7=Plinn - Ton diwezhan
TTITLE8=Gwerz zantez Henori
TTITLE9=Noir comme la mer
TTITLE10=Me'zoganet e kreiz ar mar
TTITLE11=An dvarnijen
TTITLE12=Defixio
TTITLE13=Hanter dro - Kanet berjelenig!
TTITLE14=Gwerz DomYann Derrian
EXTD=YEAR: 2005
EXTT0=
EXTT1=
EXTT2=
EXTT3=
EXTT4=
EXTT5=
EXTT6=
EXTT7=
EXTT8=
EXTT9=
EXTT10=
EXTT11=
EXTT12=
EXTT13=
EXTT14=
PLAYORDER=
